<svg width="49" height="98" viewBox="0 0 49 98" version="1.1" xmlns="http://www.w3.org/2000/svg" xmlns:xlink="http://www.w3.org/1999/xlink"><title>carrot-white</title><desc>Created with Sketch.</desc><g id="Page-1" stroke="none" stroke-width="1" fill="none" fill-rule="evenodd"><g id="carrot-white" fill="#FFF"><path d="M1.44061735,13.4473801 C1.38711879,14.0825514 1.36062922,14.7172013 1.36062922,15.3487223 C1.36478444,20.767495 3.32761001,26.0319076 7.29429399,30.0197198 C10.6356162,33.3687101 14.8755065,35.2935192 19.3470506,35.8223071 C16.0192328,31.3693285 14.0979595,25.9781945 14.0979595,20.3211021 C14.0979595,19.0538883 14.1992432,17.7767663 14.3945388,16.4975584 C11.0739927,14.4100454 7.24339245,13.3686356 3.33747867,13.3655066 C2.7069229,13.3655066 2.07325073,13.3931455 1.44061735,13.4473801 M17.7805298,16.3407994 C17.5467982,17.6763279 17.4351265,19.0055986 17.4351265,20.3213107 C17.4351265,25.8579395 19.4498924,31.1338249 22.9304148,35.4058475 C22.8956147,34.8801884 22.8758774,34.3555725 22.8758774,33.8330423 C22.8758774,27.906341 25.0475031,22.0729859 29.4323069,17.673199 C31.1291979,15.9668931 33.0406025,14.5995538 35.0906879,13.559187 C34.6907472,8.56438321 32.6723455,3.85274695 29.4343845,0 C23.4228093,3.46684647 19.0255398,9.25483218 17.7805298,16.3407994 M48.843296,13.2882744 C48.2122208,13.2345612 47.5769904,13.2069224 46.9505899,13.2069224 C41.5539883,13.2079654 36.3085331,15.1817942 32.3392521,19.1685634 C28.3720487,23.153768 26.4024709,28.4166162 26.4024709,33.8333031 C26.4024709,34.4663884 26.4274022,35.1031242 26.4814202,35.7388171 C27.11717,35.7935732 27.7524004,35.820169 28.3819173,35.8196475 C33.7748831,35.8175616 39.017222,33.8432112 42.9880612,29.8606141 C46.9568228,25.8733234 48.9227647,20.6083893 48.9227647,15.1922239 C48.9227647,14.5565311 48.8978333,13.9229243 48.843296,13.2882744 M40.8635453,44.9329477 C36.5249684,41.010843 30.7985457,38.6036583 24.4997403,38.6036583 C10.9646064,38.6036583 -3.55271368e-15,49.6174666 -3.55271368e-15,63.2063784 C-3.55271368e-15,68.7696031 1.86050308,73.8879994 4.96445796,78.0093122 C5.60124657,78.8535998 6.26712176,79.6692057 7.00363583,80.4243191 L24.495585,98 L41.9916896,80.4243191 C46.3250723,75.9864636 49,69.909574 49,63.2063784 C49,55.9425841 45.8487794,49.4359891 40.8635453,44.9329477" id="Combined-Shape"/></g></g></svg>